# AST/ASF file generated using VICON BodyLanguage
# -----------------------------------------------
:version 1.10
:name VICON
:units
  mass 1.0
  length 0.45
  angle deg
:documentation
   .ast/.asf automatically generated from VICON data using
   VICON BodyBuilder and BodyLanguage model FoxedUp or BRILLIANT.MOD
:root
   order TX TY TZ RX RY RZ
   axis XYZ
   position 0 0 0  
   orientation 0 0 0 
:bonedata
  begin
     id 1 
     name lhipjoint
     direction 0.589753 -0.68606 0.426044 
     length 2.54082 
     axis 0 0 0  XYZ
  end
  begin
     id 2 
     name lfemur
     direction 0.34202 -0.939693 0  
     length 7.04539  
     axis 0 0 20  XYZ
    dof rx ry rz
    limits (-160.0 20.0)
           (-70.0 70.0)
           (-60.0 70.0)
  end
  begin
     id 3 
     name ltibia
     direction 0.34202 -0.939693 0   
     length 7.83772   
     axis 0 0 20   XYZ
    dof rx
    limits (-10.0 170.0)
  end
  begin
     id 4 
     name lfoot
     direction 0.0596604 -0.163915 0.984669   
     length 2.39542   
     axis -90 7.62852e-016 20   XYZ
    dof rx rz
    limits (-45.0 90.0)
           (-70.0 20.0)
  end
  begin
     id 5 
     name ltoes
     direction 1.53514e-011 -4.21954e-011 1   
     length 1.2047   
     axis -90 7.62852e-016 20   XYZ
    dof rx
    limits (-90.0 20.0)
  end
  begin
     id 6 
     name rhipjoint
     direction -0.580585 -0.69168 0.429534   
     length 2.52018  
     axis 0 0 0  XYZ 
  end
  begin
     id 7 
     name rfemur
     direction -0.34202 -0.939693 0   
     length 7.0101   
     axis 0 0 -20   XYZ
    dof rx ry rz
    limits (-160.0 20.0)
           (-70.0 70.0)
           (-70.0 60.0)
  end
  begin
     id 8 
     name rtibia
     direction -0.34202 -0.939693 0   
     length 7.70628   
     axis 0 0 -20   XYZ
    dof rx
    limits (-10.0 170.0)
 end
 begin
     id 9 
     name rfoot
     direction -0.0696237 -0.19129 0.979061   
     length 2.52466  
     axis -90 -7.62852e-016 -20   XYZ
    dof rx rz
    limits (-45.0 90.0)
           (-20.0 70.0)
  end
  begin
     id 10 
     name rtoes
     direction -1.53519e-011 -4.21793e-011 1   
     length 1.266   
     axis -90 -7.62852e-016 -20   XYZ
    dof rx
    limits (-90.0 20.0)
  end
  begin
     id 11 
     name lowerback
     direction 0.00381965 0.995707 -0.0924856   
     length 2.20825   
     axis 0 0 0   XYZ
    dof rx ry rz
    limits (-20.0 45.0)
           (-30.0 30.0)
           (-30.0 30.0)
  end
  begin
     id 12 
     name upperback
     direction -0.0139043 0.999634 -0.0231929   
     length 2.21517   
     axis 0 0 0   XYZ
    dof rx ry rz
    limits (-20.0 45.0)
           (-30.0 30.0)
           (-30.0 30.0)
  end
  begin
     id 13 
     name thorax
     direction -0.0143933 0.999691 0.0202892   
     length 2.22911   
     axis 0 0 0   XYZ
    dof rx ry rz
    limits (-20.0 45.0)
           (-30.0 30.0)
           (-30.0 30.0)
  end
  begin
     id 14 
     name lowerneck
     direction -0.0251153 0.981819 0.188153   
     length 1.61782   
     axis 0 0 0   XYZ
    dof rx ry rz
    limits (-20.0 45.0)
           (-30.0 30.0)
           (-30.0 30.0)
  end
  begin
     id 15 
     name upperneck
     direction 0.0563891 0.969357 -0.239095   
     length 1.64526   
     axis 0 0 0   XYZ
    dof rx ry rz
    limits (-20.0 45.0)
           (-30.0 30.0)
           (-30.0 30.0)
  end
  begin
     id 16
     name head
     direction 0.0208328 0.99459 -0.101773  
     length 1.67436  
     axis 0 0 0   XYZ
    dof rx ry rz
    limits (-20.0 45.0)
           (-30.0 30.0)
           (-30.0 30.0)
  end
  begin
     id 17 
     name lclavicle
     direction 0.917689 0.397224 0.00772059  
     length 3.31102  
     axis 0 0 0   XYZ
    dof ry rz
    limits (-20.0 10.0)
           (0.0 20.0)
  end
  begin
     id 18 
     name lhumerus
     direction 1 -4.4896e-011 2.32308e-027   
     length 5.25537   
     axis 180 -30 -90   XYZ
    dof rx ry rz
    limits (-60.0 90.0)
           (-90.0 90.0)
           (-90.0 90.0)
  end
  begin
     id 19
     name lradius
     direction 1 -4.49005e-011 -2.04271e-027   
     length 3.38855   
     axis 180 -30 -90   XYZ
    dof rx
    limits (-10.0 170.0)
  end
  begin
     id 20
     name lwrist
     direction 1 -4.48892e-011 2.56952e-028   
     length 1.69428   
     axis -5.12785e-016 90 90   XYZ
    dof ry
    limits (-180.0 0.0)
 end
  begin
     id 21 
     name lhand
     direction 1 -4.48966e-011 5.13905e-028   
     length 0.614516   
     axis -3.27915e-016 90 90   XYZ
    dof rx rz
    limits (-90.0 90.0)
           (-45.0 45.0)
  end
  begin
     id 22 
     name lfingers
     direction 1 -4.48979e-011 1.02781e-027   
     length 0.495439   
     axis -6.5583e-016 90 90   XYZ
    dof rx
    limits (0.0 90.0)
  end
  begin
     id 23
     name lthumb
     direction 0.707107 -6.35001e-011 0.707107   
     length 0.711354   
     axis -90 45 2.85299e-015   XYZ
    dof rx rz
    limits (-45.0 45.0)
           (-45.0 45.0)
  end
  begin
     id 24 
     name rclavicle
     direction -0.938556 0.342765 -0.0403177   
     length 3.27019  
     axis 0 0 0   XYZ 
    dof ry rz
    limits (-10.0 20.0)
           (-20.0 0.0)
  end
  begin
     id 25 
     name rhumerus
     direction -1 -4.48966e-011 2.52291e-027  
     length 5.38183   
     axis 180 30 90   XYZ
    dof rx ry rz
    limits (-90.0 60.0)
           (-90.0 90.0)
           (-90.0 90.0)
  end
  begin
     id 26 
     name rradius
     direction -1 -4.4896e-011 1.5797e-027   
     length 3.16988   
     axis 180 30 90   XYZ
    dof rx
    limits (-10.0 170.0)
  end
  begin
     id 27 
     name rwrist
     direction -1 -4.48947e-011 2.56952e-028   
     length 1.58494   
     axis -5.12785e-016 -90 -90   XYZ
    dof ry
    limits (-180.0 0.0)
  end
  begin
     id 28
     name rhand
     direction -1 -4.49098e-011 5.13905e-028   
     length 0.637679   
     axis -3.27915e-016 -90 -90   XYZ
    dof rx rz
    limits (-90.0 90.0)
           (-45.0 45.0)
  end
  begin
     id 29
     name rfingers
     direction -1 -4.49026e-011 1.02781e-027   
     length 0.514113   
     axis -6.5583e-016 -90 -90   XYZ
    dof rx
    limits (0.0 90.0)
  end
  begin
     id 30
     name rthumb
     direction -0.707107 -6.3491e-011 0.707107   
     length 0.738167   
     axis -90 -45 -2.85299e-015   XYZ
    dof rx rz
    limits (-45.0 45.0)
           (-45.0 45.0)
  end
:hierarchy
  begin
    root lhipjoint rhipjoint lowerback
    lhipjoint lfemur
    lfemur ltibia
    ltibia lfoot
    lfoot ltoes
    rhipjoint rfemur
    rfemur rtibia
    rtibia rfoot
    rfoot rtoes
    lowerback upperback
    upperback thorax
    thorax lowerneck lclavicle rclavicle
    lowerneck upperneck
    upperneck head
    lclavicle lhumerus
    lhumerus lradius
    lradius lwrist
    lwrist lhand lthumb
    lhand lfingers
    rclavicle rhumerus
    rhumerus rradius
    rradius rwrist
    rwrist rhand rthumb
    rhand rfingers
  end

#!OML:ASF H:\Swim\Project 1\Capture day 1\Session 1\swimmer.ASF
:FULLY-SPECIFIED
:DEGREES
267
root 5.5496 17.6101 -21.0921 10.4359 0.51277 2.17818
lowerback 6.51571 0.687614 -3.99235
upperback 3.49936 0.664635 -4.12023
thorax -0.0348793 0.317652 -2.04985
lowerneck -25.1369 -5.26948 -8.70603
upperneck 24.9522 -6.85107 9.19147
head 13.2225 -2.58949 3.77532
rclavicle 1.59028e-015 -2.46493e-014
rhumerus -35.3065 26.2978 -91.6134
rradius 49.5561
rwrist 4.35408
rhand -11.0967 13.9712
rfingers 7.12502
rthumb 14.9274 -15.4709
lclavicle 1.59028e-015 -2.46493e-014
lhumerus -40.8477 -12.7104 67.0886
lradius 45.2666
lwrist -11.8203
lhand -11.7567 3.12028
lfingers 7.12502
lthumb 14.2914 32.6085
rfemur -10.0032 -7.41868 15.0047
rtibia 54.7897
rfoot -0.825782 -2.93855
rtoes -13.6761
lfemur -25.3675 -6.9749 -20.9753
ltibia 31.2587
lfoot -12.0899 1.6336
ltoes 6.82933
268
root 5.5719 17.6214 -20.9506 10.3533 0.550294 2.28526
lowerback 6.54053 0.613292 -4.21106
upperback 3.53656 0.554502 -4.09781
thorax -0.0125277 0.259251 -1.89735
lowerneck -25.1904 -5.24013 -8.66587
upperneck 25.0573 -6.80203 9.1051
head 13.265 -2.57407 3.74634
rclavicle 1.19271e-015 5.56597e-015
rhumerus -35.5262 26.1915 -91.5989
rradius 49.0356
rwrist 3.73185
rhand -11.4494 13.7257
rfingers 7.12502
rthumb 14.5875 -15.7413
lclavicle 1.19271e-015 5.56597e-015
lhumerus -40.6736 -13.2388 67.3977
lradius 45.7759
lwrist -11.6768
lhand -11.9764 3.09538
lfingers 7.12502
lthumb 14.0797 32.5984
rfemur -11.6651 -7.76454 15.0757
rtibia 56.3851
rfoot -1.24972 -1.24715
rtoes -14.0302
lfemur -24.4706 -7.17958 -21.2319
ltibia 30.7982
lfoot -12.3382 1.81308
ltoes 6.66641
269
root 5.594 17.6305 -20.809 10.2703 0.597477 2.3422
lowerback 6.55062 0.53501 -4.36562
upperback 3.57171 0.443739 -4.06212
thorax 0.0170048 0.201095 -1.76683
lowerneck -25.2265 -5.20455 -8.61252
upperneck 25.1592 -6.75267 9.0255
head 13.3026 -2.55681 3.71785
rclavicle -1.59028e-015 7.07673e-014
rhumerus -35.7422 26.066 -91.5682
rradius 48.5305
rwrist 3.14539
rhand -11.7817 13.4633
rfingers 7.12502
rthumb 14.2674 -16.0266
lclavicle -1.59028e-015 7.07673e-014
lhumerus -40.4725 -13.7477 67.6901
lradius 46.2716
lwrist -11.5812
lhand -12.1699 3.06424
lfingers 7.12502
lthumb 13.8933 32.5801
rfemur -13.3263 -8.0749 15.2451
rtibia 57.8027
rfoot -1.73285 0.218221
rtoes -14.2698
lfemur -23.6076 -7.37292 -21.4356
ltibia 30.3977
lfoot -12.6102 1.97738
ltoes 6.56888
270
root 5.61551 17.6376 -20.667 10.1858 0.649873 2.35733
lowerback 6.55199 0.449844 -4.47172
upperback 3.60597 0.327239 -4.01313
thorax 0.0512334 0.140466 -1.64924
lowerneck -25.2644 -5.16458 -8.55947
upperneck 25.2653 -6.70188 8.96108
head 13.343 -2.53687 3.69593
rclavicle -1.98785e-015 6.36111e-015
rhumerus -35.9441 25.9298 -91.518
rradius 48.0357
rwrist 2.59976
rhand -12.1464 13.2378
rfingers 7.12502
rthumb 13.9159 -16.2765
lclavicle -1.98785e-015 6.36111e-015
lhumerus -40.2461 -14.2156 67.9616
lradius 46.7522
lwrist -11.5334
lhand -12.3354 3.04059
lfingers 7.12502
lthumb 13.7337 32.5674
rfemur -14.9836 -8.34085 15.502
rtibia 59.0496
rfoot -2.27872 1.42373
rtoes -14.3884
lfemur -22.7739 -7.54922 -21.5948
ltibia 30.0553
lfoot -12.9046 2.12641
ltoes 6.51537
271
root 5.63641 17.6424 -20.525 10.1041 0.709451 2.34523
lowerback 6.54213 0.365247 -4.54353
upperback 3.63681 0.214099 -3.95665
thorax 0.0887446 0.0818264 -1.54332
lowerneck -25.2851 -5.12312 -8.49968
upperneck 25.3652 -6.65777 8.91271
head 13.3789 -2.51747 3.6779
rclavicle -2.78299e-015 -3.18055e-014
rhumerus -36.1359 25.7521 -91.444
rradius 47.5418
rwrist 2.12389
rhand -12.5127 12.9946
rfingers 7.12502
rthumb 13.5629 -16.5437
lclavicle -2.78299e-015 -3.18055e-014
lhumerus -39.9892 -14.6603 68.2175
lradius 47.2203
lwrist -11.5292
lhand -12.476 2.99964
lfingers 7.12502
lthumb 13.5982 32.5355
rfemur -16.6461 -8.5632 15.8272
rtibia 60.1349
rfoot -2.88012 2.34257
rtoes -14.4436
lfemur -21.9756 -7.71567 -21.7241
ltibia 29.7683
lfoot -13.2125 2.26438
ltoes 6.47538
272
root 5.65641 17.6448 -20.3828 10.0247 0.772779 2.32474
lowerback 6.53006 0.275986 -4.60639
upperback 3.66485 0.0953195 -3.8938
thorax 0.12514 0.0204177 -1.43557
lowerneck -25.3148 -5.07937 -8.44332
upperneck 25.4695 -6.61422 8.88182
head 13.4195 -2.49603 3.66751
rclavicle -2.78299e-015 1.11319e-014
rhumerus -36.3139 25.5545 -91.3446
rradius 47.0545
rwrist 1.70679
rhand -12.9047 12.7786
rfingers 7.12502
rthumb 13.185 -16.7845
lclavicle -2.78299e-015 1.11319e-014
lhumerus -39.7096 -15.0606 68.4578
lradius 47.677
lwrist -11.5562
lhand -12.6051 2.94037
lfingers 7.12502
lthumb 13.4738 32.4845
rfemur -18.3082 -8.73804 16.1924
rtibia 61.065
rfoot -3.54517 2.96272
rtoes -14.4598
lfemur -21.2064 -7.87716 -21.8432
ltibia 29.5296
lfoot -13.5352 2.40224
ltoes 6.42838
273
root 5.67541 17.6446 -20.2406 9.94587 0.838688 2.30834
lowerback 6.51815 0.18418 -4.67267
upperback 3.69233 -0.0270427 -3.82918
thorax 0.161459 -0.0428836 -1.32402
lowerneck -25.3557 -5.03663 -8.38784
upperneck 25.5762 -6.57631 8.86689
head 13.465 -2.47465 3.66266
rclavicle 4.37326e-015 2.46493e-014
rhumerus -36.4785 25.3341 -91.2199
rradius 46.5819
rwrist 1.34197
rhand -13.3723 12.6158
rfingers 7.12502
rthumb 12.7343 -16.9759
lclavicle 4.37326e-015 2.46493e-014
lhumerus -39.405 -15.4265 68.6845
lradius 48.1239
lwrist -11.5949
lhand -12.7415 2.86903
lfingers 7.12502
lthumb 13.3424 32.4219
rfemur -19.9617 -8.86437 16.5748
rtibia 61.8446
rfoot -4.27667 3.29693
rtoes -14.4969
lfemur -20.4609 -8.04087 -21.9653
ltibia 29.3337
lfoot -13.8581 2.55434
ltoes 6.25673
274
root 5.69336 17.6418 -20.0983 9.86428 0.905391 2.31217
lowerback 6.50695 0.0928761 -4.75607
upperback 3.7212 -0.14963 -3.76954
thorax 0.199558 -0.106575 -1.20826
lowerneck -25.3992 -4.99524 -8.32636
upperneck 25.6789 -6.54643 8.8644
head 13.5107 -2.45439 3.66016
rclavicle 9.54166e-015 1.66979e-014
rhumerus -36.6298 25.0912 -91.0729
rradius 46.1245
rwrist 1.01711
rhand -13.8889 12.4513
rfingers 7.12502
rthumb 12.2362 -17.1708
lclavicle 9.54166e-015 1.66979e-014
lhumerus -39.078 -15.7725 68.8997
lradius 48.5621
lwrist -11.6348
lhand -12.9166 2.78229
lfingers 7.12502
lthumb 13.1736 32.3461
rfemur -21.5913 -8.94249 16.9435
rtibia 62.4775
rfoot -5.06497 3.37441
rtoes -14.4514
lfemur -19.7304 -8.21054 -22.1091
ltibia 29.1733
lfoot -14.1885 2.71856
ltoes 6.05634
275
root 5.71022 17.6366 -19.9559 9.78192 0.974721 2.33563
lowerback 6.49526 -0.00188641 -4.85544
upperback 3.75221 -0.277472 -3.71409
thorax 0.241014 -0.173202 -1.08778
lowerneck -25.4513 -4.95559 -8.26381
upperneck 25.779 -6.52273 8.87398
head 13.5584 -2.43482 3.66108
rclavicle 6.75868e-015 1.66979e-014
rhumerus -36.7685 24.843 -90.9099
rradius 45.6871
rwrist 0.715373
rhand -14.4283 12.3437
rfingers 7.12502
rthumb 11.7161 -17.3087
lclavicle 6.75868e-015 1.66979e-014
lhumerus -38.7331 -16.0966 69.104
lradius 48.9949
lwrist -11.6499
lhand -13.1298 2.71132
lfingers 7.12502
lthumb 12.9681 32.2883
rfemur -23.1904 -8.97413 17.2921
rtibia 62.9619
rfoot -5.896 3.22495
rtoes -14.3341
lfemur -19.0135 -8.38761 -22.274
ltibia 29.0429
lfoot -14.5252 2.89636
ltoes 5.84021
276
root 5.7263 17.6291 -19.8133 9.6981 1.04859 2.37643
lowerback 6.48516 -0.0978664 -4.96492
upperback 3.78443 -0.407479 -3.66299
thorax 0.28371 -0.241113 -0.966258
lowerneck -25.5091 -4.91936 -8.19709
upperneck 25.8776 -6.50823 8.89248
head 13.6081 -2.41742 3.66309
rclavicle -3.18055e-015 -4.92986e-014
rhumerus -36.9009 24.5902 -90.7321
rradius 45.2758
rwrist 0.421786
rhand -14.9612 12.2429
rfingers 7.12502
rthumb 11.2022 -17.4381
lclavicle -3.18055e-015 -4.92986e-014
lhumerus -38.3684 -16.4082 69.3025
lradius 49.4187
lwrist -11.6409
lhand -13.3751 2.65321
lfingers 7.12502
lthumb 12.7316 32.2451
rfemur -24.7549 -8.96697 17.6155
rtibia 63.2942
rfoot -6.74531 2.89099
rtoes -14.1922
lfemur -18.3037 -8.5639 -22.4595
ltibia 28.9316
lfoot -14.8651 3.07811
ltoes 5.62011
277
root 5.74178 17.6197 -19.6704 9.61413 1.12794 2.42756
lowerback 6.47483 -0.195353 -5.07491
upperback 3.81709 -0.539414 -3.61447
thorax 0.327821 -0.310067 -0.847195
lowerneck -25.5703 -4.88653 -8.13086
upperneck 25.9747 -6.50255 8.92393
head 13.6596 -2.40197 3.6687
rclavicle 1.03368e-014 2.38542e-014
rhumerus -37.0319 24.3375 -90.5438
rradius 44.8912
rwrist 0.133234
rhand -15.4402 12.1152
rfingers 7.12502
rthumb 10.7402 -17.5902
lclavicle 1.03368e-014 2.38542e-014
lhumerus -37.9872 -16.715 69.4989
lradius 49.8352
lwrist -11.5985
lhand -13.6483 2.61225
lfingers 7.12502
lthumb 12.4682 32.2203
rfemur -26.2789 -8.9214 17.9146
rtibia 63.4661
rfoot -7.59063 2.41894
rtoes -14.0092
lfemur -17.5976 -8.73407 -22.6586
ltibia 28.8304
lfoot -15.2056 3.25666
ltoes 5.42151
278
root 5.75648 17.6089 -19.5268 9.52287 1.20676 2.48304
lowerback 6.47313 -0.294251 -5.18205
upperback 3.85038 -0.673678 -3.56748
thorax 0.368555 -0.380151 -0.731321
lowerneck -25.6404 -4.85817 -8.07008
upperneck 26.0732 -6.50641 8.97243
head 13.7158 -2.38857 3.68041
rclavicle -1.35174e-014 -3.4191e-014
rhumerus -37.1596 24.0964 -90.3504
rradius 44.5303
rwrist -0.15518
rhand -15.8599 12.0173
rfingers 7.12502
rthumb 10.3353 -17.7087
lclavicle -1.35174e-014 -3.4191e-014
lhumerus -37.5956 -17.0183 69.6907
lradius 50.2484
lwrist -11.5271
lhand -13.9467 2.60245
lfingers 7.12502
lthumb 12.1805 32.2278
rfemur -27.7448 -8.83856 18.1886
rtibia 63.4672
rfoot -8.41504 1.85901
rtoes -13.7915
lfemur -16.8766 -8.89023 -22.8652
ltibia 28.7233
lfoot -15.5461 3.42676
ltoes 5.26279
279
root 5.77073 17.5971 -19.3825 9.43021 1.29175 2.54259
lowerback 6.47376 -0.393535 -5.28172
upperback 3.88282 -0.808263 -3.52134
thorax 0.407761 -0.450303 -0.620612
lowerneck -25.7117 -4.83914 -8.01961
upperneck 26.1713 -6.52593 9.0399
head 13.7753 -2.38026 3.6986
rclavicle 2.78299e-015 -7.95139e-016
rhumerus -37.2857 23.856 -90.1474
rradius 44.1857
rwrist -0.431395
rhand -16.208 11.8979
rfingers 7.12502
rthumb 9.99946 -17.8446
lclavicle 2.78299e-015 -7.95139e-016
lhumerus -37.1935 -17.3256 69.8836
lradius 50.6599
lwrist -11.4303
lhand -14.2583 2.60642
lfingers 7.12502
lthumb 11.88 32.2494
rfemur -29.1543 -8.72798 18.4355
rtibia 63.2866
rfoot -9.20126 1.23826
rtoes -13.6202
lfemur -16.1384 -9.03091 -23.0784
ltibia 28.5935
lfoot -15.8763 3.58318
ltoes 5.12562
280
root 5.7845 17.5848 -19.2371 9.33285 1.38282 2.60759
lowerback 6.47966 -0.492159 -5.37479
upperback 3.91287 -0.942183 -3.47775
thorax 0.442078 -0.519937 -0.516334
lowerneck -25.7719 -4.82926 -7.97977
upperneck 26.2639 -6.56186 9.12816
head 13.8337 -2.37749 3.72379
rclavicle -6.75868e-015 -1.59028e-014
rhumerus -37.4143 23.6131 -89.9378
rradius 43.8545
rwrist -0.692838
rhand -16.4778 11.7499
rfingers 7.12502
rthumb 9.73922 -18.0049
lclavicle -6.75868e-015 -1.59028e-014
lhumerus -36.7805 -17.6393 70.076
lradius 51.0652
lwrist -11.3226
lhand -14.5751 2.62683
lfingers 7.12502
lthumb 11.5745 32.2872
rfemur -30.4918 -8.59304 18.6488
rtibia 62.9151
rfoot -9.94164 0.590218
rtoes -13.501
lfemur -15.3664 -9.15789 -23.2996
ltibia 28.4181
lfoot -16.188 3.72877
ltoes 5.00497
281
root 5.79779 17.5725 -19.0904 9.23262 1.48555 2.68242
lowerback 6.49005 -0.592615 -5.46509
upperback 3.94227 -1.07877 -3.43603
thorax 0.473911 -0.590828 -0.415428
lowerneck -25.833 -4.83002 -7.95518
upperneck 26.3544 -6.6139 9.23729
head 13.895 -2.38025 3.757
rclavicle -1.19271e-015 1.03368e-014
rhumerus -37.5338 23.3711 -89.7188
rradius 43.5236
rwrist -0.934418
rhand -16.7374 11.6092
rfingers 7.12502
rthumb 9.48876 -18.1572
lclavicle -1.19271e-015 1.03368e-014
lhumerus -36.3639 -17.9553 70.2685
lradius 51.4767
lwrist -11.2067
lhand -14.8921 2.63518
lfingers 7.12502
lthumb 11.2688 32.3125
rfemur -31.7475 -8.44194 18.8202
rtibia 62.3458
rfoot -10.6283 -0.0481318
rtoes -13.477
lfemur -14.5524 -9.27657 -23.5327
ltibia 28.18
lfoot -16.4679 3.86662
ltoes 4.86352
